# xmcd
#
# Track frame offsets:
#	150
#	16278
#	35100
#	48262
#	60846
#	74571
#	89466
#	104838
#	120826
#	135550
#	148176
#
# Disc length: 2176
#
# Revision: 2
# Processed by: cddbd v1.5.1PL0 Copyright (c) Steve Scherf et al.
# Submitted via: CDex 1.51
# Normalized: r0:DSETVAR1,TDELIM( - );r1:TSWAP
#
DISCID=9b087e0b
DTITLE=Various Artist - The South's Greatest Hits
DYEAR=1977
DGENRE=Country
TTITLE0=Allman Brother's Band - Ramblin' Man
TTITLE1=Charlie Daniels Band - The South's Gonna Do It Again
TTITLE2=Elvin Bishop - Fooled Around and Fell In Love
TTITLE3=Outlaws - There Goes Anothe Love Song
TTITLE4=Marshall Tucker Band - Fire On the Mountain
TTITLE5=Greg Allman - Midnight Rider
TTITLE6=Atanta Rhythm Section - Doraville
TTITLE7=Lynyrd Skynyrd - Sweet Home Alabama
TTITLE8=Amazing Rhythm Aces - Third Rate Romance
TTITLE9=Dr. John - Right Place, Wrong Time
TTITLE10=Wet Willie - Keep On Smilin'
EXTD=YEAR: 1977
EXTT0=
EXTT1=
EXTT2=
EXTT3=
EXTT4=
EXTT5=
EXTT6=
EXTT7=
EXTT8=
EXTT9=
EXTT10=
PLAYORDER=
